<?xml version="1.0" encoding="UTF-8"?>
<svg xmlns="http://www.w3.org/2000/svg"
    xmlns:latexdraw="http://latexdraw.sourceforge.net/namespaces/latexdraw"
    version="1.1" baseProfile="full">
    <defs>
        <pattern latexdraw:type="vlines" latexdraw:rotationAngle="0.0"
            latexdraw:size="7.05555534362793"
            patternUnits="userSpaceOnUse" id="pattern1808" x="0" y="0"
            width="794" height="303">
            <g stroke="#ff6666" stroke-width="2.0" stroke-dasharray="none">
                <path d="M 723.0 238.5 L 723.0 303.25 M 732.0555553436279 238.5 L 732.0555553436279 303.25 M 741.1111106872559 238.5 L 741.1111106872559 303.25 M 750.1666660308838 238.5 L 750.1666660308838 303.25 M 759.2222213745117 238.5 L 759.2222213745117 303.25 M 768.2777767181396 238.5 L 768.2777767181396 303.25 M 777.3333320617676 238.5 L 777.3333320617676 303.25 M 786.3888874053955 238.5 L 786.3888874053955 303.25 "/>
            </g>
        </pattern>
    </defs>
    <g>
        <g latexdraw:type="rectangle" id="id1797">
            <rect x="483.0" y="286.0" width="32.0" height="20.0"
                latexdraw:borderPos="outer" stroke-width="2.0"
                stroke="black" fill="none"/>
        </g>
        <g latexdraw:type="rectangle" id="id1798">
            <rect x="675.0" y="290.0" width="32.0" height="20.0"
                latexdraw:borderPos="outer" stroke-width="2.0"
                stroke="black" fill="none"/>
        </g>
        <g latexdraw:type="rectangle" id="id1799" transform="rotate(-42.373594361709245) translate(-259.2560369816483 199.73536209291262)">
            <rect x="329.95925946038835" y="224.06185442416756"
                width="114.6381848416259" height="21.0"
                latexdraw:borderPos="outer" stroke-width="2.0"
                stroke="#00cccc" fill="none"/>
        </g>
        <g latexdraw:type="rectangle" id="id1800">
            <rect x="337.0" y="283.0" width="32.0" height="20.0"
                latexdraw:borderPos="outer" stroke-width="2.0"
                stroke="black" fill="none"/>
        </g>
        <g latexdraw:type="dot" id="id1801" latexdraw:size="6.0"
            latexdraw:dotShape="dot" latexdraw:position="387.0 235.0">
            <circle r="3.0" fill="black" cx="387.0" cy="235.0"/>
        </g>
        <g latexdraw:type="dot" id="id1802" latexdraw:size="6.0"
            latexdraw:dotShape="dot" latexdraw:position="725.0 240.0">
            <circle r="3.0" fill="black" cx="725.0" cy="240.0"/>
        </g>
        <g latexdraw:type="dot" id="id1803" latexdraw:size="6.0"
            latexdraw:dotShape="dot" latexdraw:position="549.0 284.0">
            <circle r="3.0" fill="black" cx="549.0" cy="284.0"/>
        </g>
        <g latexdraw:type="circle" id="id1804">
            <circle cx="727.5" cy="241.5" r="61.5"
                latexdraw:borderPos="outer" stroke-width="2.0"
                stroke="#ff3333" fill="none" stroke-dasharray="8.0, 8.0"/>
        </g>
        <g latexdraw:type="line" id="id1806">
            <line x1="669.0" x2="793.0" y1="240.0" y2="239.0"
                stroke-width="2.0" stroke="#ff0033"
                stroke-dasharray="8.0, 8.0" latexdraw:rotationAngle="0.0"/>
        </g>
        <g latexdraw:type="line" id="id1807">
            <line x1="725.0" x2="724.0" y1="185.0" y2="302.0"
                stroke-width="2.0" stroke="#ff0033"
                stroke-dasharray="8.0, 8.0" latexdraw:rotationAngle="0.0"/>
        </g>
        <g latexdraw:type="akinPoints" id="id1808"
            latexdraw:pathType="1" latexdraw:interval="5" latexdraw:points="725.0 241.0 725.0 242.0 725.0 244.0 725.0 247.0 724.0 249.0 724.0 250.0 724.0 252.0 724.0 253.0 724.0 256.0 724.0 257.0 724.0 260.0 724.0 262.0 724.0 264.0 724.0 265.0 724.0 267.0 724.0 269.0 724.0 270.0 724.0 271.0 724.0 272.0 724.0 273.0 724.0 274.0 724.0 275.0 724.0 276.0 724.0 277.0 724.0 278.0 724.0 279.0 724.0 280.0 724.0 281.0 724.0 283.0 724.0 284.0 724.0 285.0 724.0 286.0 724.0 287.0 724.0 288.0 724.0 289.0 724.0 290.0 724.0 291.0 724.0 292.0 724.0 293.0 724.0 294.0 724.0 295.0 724.0 296.0 725.0 296.0 725.0 297.0 725.0 298.0 725.0 299.0 725.0 300.0 725.0 301.0 725.0 302.0 725.0 303.0 726.0 303.0 729.0 303.0 735.0 302.0 737.0 301.0 741.0 300.0 742.0 300.0 745.0 299.0 746.0 299.0 747.0 298.0 748.0 298.0 748.0 297.0 749.0 297.0 750.0 297.0 751.0 297.0 751.0 296.0 752.0 295.0 753.0 295.0 753.0 294.0 754.0 294.0 755.0 294.0 755.0 293.0 757.0 293.0 758.0 293.0 759.0 292.0 760.0 291.0 761.0 291.0 762.0 290.0 764.0 290.0 765.0 290.0 767.0 289.0 767.0 288.0 768.0 288.0 769.0 288.0 770.0 288.0 770.0 287.0 771.0 287.0 772.0 286.0 773.0 286.0 773.0 285.0 774.0 285.0 774.0 284.0 775.0 283.0 776.0 282.0 777.0 280.0 778.0 280.0 778.0 279.0 778.0 278.0 779.0 278.0 779.0 277.0 780.0 276.0 780.0 275.0 781.0 274.0 781.0 273.0 782.0 272.0 783.0 270.0 783.0 269.0 784.0 268.0 784.0 267.0 785.0 267.0 785.0 266.0 786.0 265.0 786.0 264.0 786.0 263.0 787.0 262.0 787.0 261.0 788.0 259.0 789.0 259.0 789.0 257.0 790.0 256.0 790.0 255.0 791.0 253.0 791.0 252.0 792.0 252.0 792.0 251.0 792.0 250.0 792.0 249.0 792.0 248.0 793.0 247.0 793.0 246.0 793.0 245.0 793.0 244.0 793.0 243.0 793.0 242.0 793.0 241.0 793.0 240.0 793.0 239.0 793.0 238.0 793.0 239.0 792.0 239.0 792.0 240.0 792.0 241.0 791.0 241.0 ">
            <path
                d="M 725.0 241.0 L 724.5 245.5 C 724.25 247.75 724.0 252.5 724.0 255.0 C 724.0 257.5 724.0 262.25 724.0 264.5 C 724.0 266.75 724.0 270.25 724.0 271.5 C 724.0 272.75 724.0 275.25 724.0 276.5 C 724.0 277.75 724.0 280.5 724.0 282.0 C 724.0 283.5 724.0 286.25 724.0 287.5 C 724.0 288.75 724.0 291.25 724.0 292.5 C 724.0 293.75 724.25 296.0 724.5 297.0 C 724.75 298.0 725.25 300.0 725.5 301.0 C 725.75 302.0 730.0 302.25 734.0 301.5 C 738.0 300.75 743.5 299.25 745.0 298.5 C 746.5 297.75 749.0 296.5 750.0 296.0 C 751.0 295.5 752.75 294.5 753.5 294.0 C 754.25 293.5 756.5 292.5 758.0 292.0 C 759.5 291.5 762.5 290.25 764.0 289.5 C 765.5 288.75 768.0 287.75 769.0 287.5 C 770.0 287.25 771.75 286.25 772.5 285.5 C 773.25 284.75 775.0 282.75 776.0 281.5 C 777.0 280.25 778.5 278.0 779.0 277.0 C 779.5 276.0 780.75 273.5 781.5 272.0 C 782.25 270.5 783.75 268.0 784.5 267.0 C 785.25 266.0 786.5 263.5 787.0 262.0 C 787.5 260.5 788.75 257.5 789.5 256.0 C 790.25 254.5 791.25 252.0 791.5 251.0 C 791.75 250.0 792.25 247.75 792.5 246.5 C 792.75 245.25 793.0 242.75 793.0 241.5 C 793.0 240.25 792.75 239.5 792.5 240.0 C 792.25 240.5 791.75 241.0 791.0 241.0 "
                stroke-width="2.0" stroke="#ff9900"
                fill="url(#pattern1808)" stroke-dasharray="8.0, 8.0" latexdraw:rotationAngle="0.0"/>
        </g>
        <g latexdraw:type="text" id="id1809"
            font-family="Times New Roman" fill="black" font-size="18" latexdraw:x="351.0">
            <text x="351.0" y="349.0"><![CDATA[(a)]]></text>
        </g>
        <g latexdraw:type="text" id="id1811"
            font-family="Times New Roman" fill="black" font-size="18" latexdraw:x="524.0">
            <text x="524.0" y="350.0"><![CDATA[(b)]]></text>
        </g>
        <g latexdraw:type="text" id="id1813"
            font-family="Times New Roman" fill="black" font-size="18" latexdraw:x="722.0">
            <text x="722.0" y="348.0"><![CDATA[(c)]]></text>
        </g>
        <g latexdraw:type="dot" id="id1815" latexdraw:size="6.0"
            latexdraw:dotShape="dot" latexdraw:position="743.0 288.0">
            <circle r="3.0" fill="black" cx="743.0" cy="288.0"/>
        </g>
        <g latexdraw:type="rectangle" id="id1816" transform="rotate(14.293339774729542) translate(52.72649417248397 -144.60308608925172)">
            <rect x="492.95925946038835" y="272.06185442416756"
                width="114.63818484162584" height="21.0"
                latexdraw:borderPos="outer" stroke-width="2.0"
                stroke="#00cccc" fill="none"/>
        </g>
        <g latexdraw:type="rectangle" id="id1817" transform="rotate(-42.373594361709245) translate(-351.48715259167477 423.68399008634265)">
            <rect x="664.9592594603885" y="231.06185442416745"
                width="114.63818484162584" height="21.0"
                latexdraw:borderPos="outer" stroke-width="2.0"
                stroke="#00cccc" fill="none"/>
        </g>
        <g latexdraw:type="rectangle" id="id1818" transform="rotate(14.293339774729542) translate(47.739615941254215 -192.37597773192923)">
            <rect x="685.9592594603882" y="276.0618544241676"
                width="114.63818484162596" height="21.0"
                latexdraw:borderPos="outer" stroke-width="2.0"
                stroke="#00cccc" fill="none"/>
        </g>
    </g>
    <metadata>
        <latexdraw:metadata>
            <latexdraw:displayBorders>false</latexdraw:displayBorders>
            <latexdraw:autoAdjust>true</latexdraw:autoAdjust>
            <latexdraw:ppc>50</latexdraw:ppc>
            <latexdraw:zoom>1.0</latexdraw:zoom>
            <latexdraw:unit>cm</latexdraw:unit>
            <latexdraw:classicGrid>false</latexdraw:classicGrid>
            <latexdraw:gridGap>10</latexdraw:gridGap>
            <latexdraw:code>0</latexdraw:code>
            <latexdraw:displayGrid>true</latexdraw:displayGrid>
            <latexdraw:magneticGrid>false</latexdraw:magneticGrid>
            <latexdraw:autoUpdate>true</latexdraw:autoUpdate>
            <latexdraw:version>2.0.8</latexdraw:version>
            <latexdraw:size>
                <latexdraw:width>1932</latexdraw:width>
                <latexdraw:height>1056</latexdraw:height>
            </latexdraw:size>
            <latexdraw:position>
                <latexdraw:x>0</latexdraw:x>
                <latexdraw:y>0</latexdraw:y>
            </latexdraw:position>
            <latexdraw:dividerPosition>0.7665631469979296</latexdraw:dividerPosition>
            <latexdraw:displayCodePanel>true</latexdraw:displayCodePanel>
            <latexdraw:displayXScale>true</latexdraw:displayXScale>
            <latexdraw:displayYScale>true</latexdraw:displayYScale>
            <latexdraw:delimitorOpacity>130</latexdraw:delimitorOpacity>
        </latexdraw:metadata>
    </metadata>
</svg>
