<?xml version="1.0" encoding="UTF-8"?>
<svg xmlns="http://www.w3.org/2000/svg"
    xmlns:latexdraw="http://latexdraw.sourceforge.net/namespaces/latexdraw"
    version="1.1" baseProfile="full">
    <defs>
        <pattern latexdraw:type="vlines" latexdraw:rotationAngle="0.0"
            latexdraw:size="7.05555534362793"
            patternUnits="userSpaceOnUse" id="pattern2461" x="0" y="0"
            width="300" height="305">
            <g stroke="#ff6666" stroke-width="2.0" stroke-dasharray="none">
                <path d="M 229.0 240.5 L 229.0 305.25 M 238.05555534362793 240.5 L 238.05555534362793 305.25 M 247.11111068725586 240.5 L 247.11111068725586 305.25 M 256.1666660308838 240.5 L 256.1666660308838 305.25 M 265.2222213745117 240.5 L 265.2222213745117 305.25 M 274.27777671813965 240.5 L 274.27777671813965 305.25 M 283.3333320617676 240.5 L 283.3333320617676 305.25 M 292.3888874053955 240.5 L 292.3888874053955 305.25 "/>
            </g>
        </pattern>
        <pattern latexdraw:type="vlines" latexdraw:rotationAngle="0.0"
            latexdraw:size="7.05555534362793"
            patternUnits="userSpaceOnUse" id="pattern2475" x="0" y="0"
            width="455" height="303">
            <g stroke="#ff6666" stroke-width="2.0" stroke-dasharray="none">
                <path d="M 384.0 238.5 L 384.0 303.25 M 393.05555534362793 238.5 L 393.05555534362793 303.25 M 402.11111068725586 238.5 L 402.11111068725586 303.25 M 411.1666660308838 238.5 L 411.1666660308838 303.25 M 420.2222213745117 238.5 L 420.2222213745117 303.25 M 429.27777671813965 238.5 L 429.27777671813965 303.25 M 438.3333320617676 238.5 L 438.3333320617676 303.25 M 447.3888874053955 238.5 L 447.3888874053955 303.25 "/>
            </g>
        </pattern>
        <pattern latexdraw:type="vlines" latexdraw:rotationAngle="0.0"
            latexdraw:size="7.05555534362793"
            patternUnits="userSpaceOnUse" id="pattern2476" x="0" y="0"
            width="391" height="309">
            <g stroke="#ff6666" stroke-width="2.0" stroke-dasharray="none">
                <path d="M 326.8158874511719 237.96673583984375 L 326.8158874511719 309.10198974609375 M 335.8714427947998 237.96673583984375 L 335.8714427947998 309.10198974609375 M 344.92699813842773 237.96673583984375 L 344.92699813842773 309.10198974609375 M 353.98255348205566 237.96673583984375 L 353.98255348205566 309.10198974609375 M 363.0381088256836 237.96673583984375 L 363.0381088256836 309.10198974609375 M 372.0936641693115 237.96673583984375 L 372.0936641693115 309.10198974609375 M 381.14921951293945 237.96673583984375 L 381.14921951293945 309.10198974609375 M 390.2047748565674 237.96673583984375 L 390.2047748565674 309.10198974609375 "/>
            </g>
        </pattern>
    </defs>
    <g>
        <g latexdraw:type="rectangle" id="id2453">
            <rect x="202.0" y="181.0" width="32.0" height="40.0"
                latexdraw:borderPos="outer" stroke-width="2.0"
                stroke="black" fill="none"/>
        </g>
        <g latexdraw:type="rectangle" id="id2454" transform="rotate(-42.373594361709245) translate(-224.41770069855698 93.85534421276321)">
            <rect x="175.95925946038835" y="232.06185442416756"
                width="114.6381848416259" height="21.0"
                latexdraw:borderPos="outer" stroke-width="2.0"
                stroke="#00cccc" fill="none"/>
        </g>
        <g latexdraw:type="rectangle" id="id2455">
            <rect x="183.0" y="291.0" width="32.0" height="20.0"
                latexdraw:borderPos="outer" stroke-width="2.0"
                stroke="black" fill="none"/>
        </g>
        <g latexdraw:type="dot" id="id2456" latexdraw:size="6.0"
            latexdraw:dotShape="dot" latexdraw:position="233.0 243.0">
            <circle r="3.0" fill="black" cx="233.0" cy="243.0"/>
        </g>
        <g latexdraw:type="circle" id="id2457">
            <circle cx="232.5" cy="241.5" r="61.5"
                latexdraw:borderPos="outer" stroke-width="2.0"
                stroke="#ff3333" fill="none" stroke-dasharray="8.0, 8.0"/>
        </g>
        <g latexdraw:type="line" id="id2459">
            <line x1="177.0" x2="301.0" y1="242.0" y2="241.0"
                stroke-width="2.0" stroke="#ff0033"
                stroke-dasharray="8.0, 8.0" latexdraw:rotationAngle="0.0"/>
        </g>
        <g latexdraw:type="line" id="id2460">
            <line x1="234.0" x2="233.0" y1="183.0" y2="300.0"
                stroke-width="2.0" stroke="#ff0033"
                stroke-dasharray="8.0, 8.0" latexdraw:rotationAngle="0.0"/>
        </g>
        <g latexdraw:type="akinPoints" id="id2461"
            latexdraw:pathType="1" latexdraw:interval="5" latexdraw:points="231.0 243.0 231.0 244.0 231.0 246.0 231.0 249.0 230.0 251.0 230.0 252.0 230.0 254.0 230.0 255.0 230.0 258.0 230.0 259.0 230.0 262.0 230.0 264.0 230.0 266.0 230.0 267.0 230.0 269.0 230.0 271.0 230.0 272.0 230.0 273.0 230.0 274.0 230.0 275.0 230.0 276.0 230.0 277.0 230.0 278.0 230.0 279.0 230.0 280.0 230.0 281.0 230.0 282.0 230.0 283.0 230.0 285.0 230.0 286.0 230.0 287.0 230.0 288.0 230.0 289.0 230.0 290.0 230.0 291.0 230.0 292.0 230.0 293.0 230.0 294.0 230.0 295.0 230.0 296.0 230.0 297.0 230.0 298.0 231.0 298.0 231.0 299.0 231.0 300.0 231.0 301.0 231.0 302.0 231.0 303.0 231.0 304.0 231.0 305.0 232.0 305.0 235.0 305.0 241.0 304.0 243.0 303.0 247.0 302.0 248.0 302.0 251.0 301.0 252.0 301.0 253.0 300.0 254.0 300.0 254.0 299.0 255.0 299.0 256.0 299.0 257.0 299.0 257.0 298.0 258.0 297.0 259.0 297.0 259.0 296.0 260.0 296.0 261.0 296.0 261.0 295.0 263.0 295.0 264.0 295.0 265.0 294.0 266.0 293.0 267.0 293.0 268.0 292.0 270.0 292.0 271.0 292.0 273.0 291.0 273.0 290.0 274.0 290.0 275.0 290.0 276.0 290.0 276.0 289.0 277.0 289.0 278.0 288.0 279.0 288.0 279.0 287.0 280.0 287.0 280.0 286.0 281.0 285.0 282.0 284.0 283.0 282.0 284.0 282.0 284.0 281.0 284.0 280.0 285.0 280.0 285.0 279.0 286.0 278.0 286.0 277.0 287.0 276.0 287.0 275.0 288.0 274.0 289.0 272.0 289.0 271.0 290.0 270.0 290.0 269.0 291.0 269.0 291.0 268.0 292.0 267.0 292.0 266.0 292.0 265.0 293.0 264.0 293.0 263.0 294.0 261.0 295.0 261.0 295.0 259.0 296.0 258.0 296.0 257.0 297.0 255.0 297.0 254.0 298.0 254.0 298.0 253.0 298.0 252.0 298.0 251.0 298.0 250.0 299.0 249.0 299.0 248.0 299.0 247.0 299.0 246.0 299.0 245.0 299.0 244.0 299.0 243.0 299.0 242.0 299.0 241.0 299.0 240.0 299.0 241.0 298.0 241.0 298.0 242.0 298.0 243.0 297.0 243.0 ">
            <path
                d="M 231.0 243.0 L 230.5 247.5 C 230.25 249.75 230.0 254.5 230.0 257.0 C 230.0 259.5 230.0 264.25 230.0 266.5 C 230.0 268.75 230.0 272.25 230.0 273.5 C 230.0 274.75 230.0 277.25 230.0 278.5 C 230.0 279.75 230.0 282.5 230.0 284.0 C 230.0 285.5 230.0 288.25 230.0 289.5 C 230.0 290.75 230.0 293.25 230.0 294.5 C 230.0 295.75 230.25 298.0 230.5 299.0 C 230.75 300.0 231.25 302.0 231.5 303.0 C 231.75 304.0 236.0 304.25 240.0 303.5 C 244.0 302.75 249.5 301.25 251.0 300.5 C 252.5 299.75 255.0 298.5 256.0 298.0 C 257.0 297.5 258.75 296.5 259.5 296.0 C 260.25 295.5 262.5 294.5 264.0 294.0 C 265.5 293.5 268.5 292.25 270.0 291.5 C 271.5 290.75 274.0 289.75 275.0 289.5 C 276.0 289.25 277.75 288.25 278.5 287.5 C 279.25 286.75 281.0 284.75 282.0 283.5 C 283.0 282.25 284.5 280.0 285.0 279.0 C 285.5 278.0 286.75 275.5 287.5 274.0 C 288.25 272.5 289.75 270.0 290.5 269.0 C 291.25 268.0 292.5 265.5 293.0 264.0 C 293.5 262.5 294.75 259.5 295.5 258.0 C 296.25 256.5 297.25 254.0 297.5 253.0 C 297.75 252.0 298.25 249.75 298.5 248.5 C 298.75 247.25 299.0 244.75 299.0 243.5 C 299.0 242.25 298.75 241.5 298.5 242.0 C 298.25 242.5 297.75 243.0 297.0 243.0 "
                stroke-width="2.0" stroke="#ff9900"
                fill="url(#pattern2461)" stroke-dasharray="8.0, 8.0" latexdraw:rotationAngle="0.0"/>
        </g>
        <g latexdraw:type="text" id="id2462"
            font-family="Times New Roman" fill="black" font-size="18" latexdraw:x="197.0">
            <text x="197.0" y="357.0"><![CDATA[(a)]]></text>
        </g>
        <g latexdraw:type="text" id="id2464"
            font-family="Times New Roman" fill="black" font-size="18" latexdraw:x="370.0">
            <text x="370.0" y="358.0"><![CDATA[(b)]]></text>
        </g>
        <g latexdraw:type="text" id="id2466"
            font-family="Times New Roman" fill="black" font-size="18" latexdraw:x="570.0">
            <text x="570.0" y="360.0"><![CDATA[(c)]]></text>
        </g>
        <g latexdraw:type="rectangle" id="id2468">
            <rect x="424.0" y="229.0" width="32.0" height="82.0"
                latexdraw:borderPos="outer" stroke-width="2.0"
                stroke="black" fill="none"/>
        </g>
        <g latexdraw:type="rectangle" id="id2469" transform="rotate(-42.373594361709245) translate(-266.40838486917664 196.1878263780141)">
            <rect x="328.95925946038835" y="235.06185442416756"
                width="114.63818484162596" height="21.0"
                latexdraw:borderPos="outer" stroke-width="2.0"
                stroke="#00cccc" fill="none"/>
        </g>
        <g latexdraw:type="dot" id="id2470" latexdraw:size="6.0"
            latexdraw:dotShape="dot" latexdraw:position="386.0 245.0">
            <circle r="3.0" fill="black" cx="386.0" cy="245.0"/>
        </g>
        <g latexdraw:type="circle" id="id2471">
            <circle cx="385.5" cy="243.5" r="61.5"
                latexdraw:borderPos="outer" stroke-width="2.0"
                stroke="#ff3333" fill="none" stroke-dasharray="8.0, 8.0"/>
        </g>
        <g latexdraw:type="line" id="id2473">
            <line x1="329.0" x2="453.0" y1="244.0" y2="243.0"
                stroke-width="2.0" stroke="#ff0033"
                stroke-dasharray="8.0, 8.0" latexdraw:rotationAngle="0.0"/>
        </g>
        <g latexdraw:type="line" id="id2474">
            <line x1="387.0" x2="386.0" y1="185.0" y2="302.0"
                stroke-width="2.0" stroke="#ff0033"
                stroke-dasharray="8.0, 8.0" latexdraw:rotationAngle="0.0"/>
        </g>
        <g latexdraw:type="akinPoints" id="id2475"
            latexdraw:pathType="1" latexdraw:interval="5" latexdraw:points="386.0 241.0 386.0 242.0 386.0 244.0 386.0 247.0 385.0 249.0 385.0 250.0 385.0 252.0 385.0 253.0 385.0 256.0 385.0 257.0 385.0 260.0 385.0 262.0 385.0 264.0 385.0 265.0 385.0 267.0 385.0 269.0 385.0 270.0 385.0 271.0 385.0 272.0 385.0 273.0 385.0 274.0 385.0 275.0 385.0 276.0 385.0 277.0 385.0 278.0 385.0 279.0 385.0 280.0 385.0 281.0 385.0 283.0 385.0 284.0 385.0 285.0 385.0 286.0 385.0 287.0 385.0 288.0 385.0 289.0 385.0 290.0 385.0 291.0 385.0 292.0 385.0 293.0 385.0 294.0 385.0 295.0 385.0 296.0 386.0 296.0 386.0 297.0 386.0 298.0 386.0 299.0 386.0 300.0 386.0 301.0 386.0 302.0 386.0 303.0 387.0 303.0 390.0 303.0 396.0 302.0 398.0 301.0 402.0 300.0 403.0 300.0 406.0 299.0 407.0 299.0 408.0 298.0 409.0 298.0 409.0 297.0 410.0 297.0 411.0 297.0 412.0 297.0 412.0 296.0 413.0 295.0 414.0 295.0 414.0 294.0 415.0 294.0 416.0 294.0 416.0 293.0 418.0 293.0 419.0 293.0 420.0 292.0 421.0 291.0 422.0 291.0 423.0 290.0 425.0 290.0 426.0 290.0 428.0 289.0 428.0 288.0 429.0 288.0 430.0 288.0 431.0 288.0 431.0 287.0 432.0 287.0 433.0 286.0 434.0 286.0 434.0 285.0 435.0 285.0 435.0 284.0 436.0 283.0 437.0 282.0 438.0 280.0 439.0 280.0 439.0 279.0 439.0 278.0 440.0 278.0 440.0 277.0 441.0 276.0 441.0 275.0 442.0 274.0 442.0 273.0 443.0 272.0 444.0 270.0 444.0 269.0 445.0 268.0 445.0 267.0 446.0 267.0 446.0 266.0 447.0 265.0 447.0 264.0 447.0 263.0 448.0 262.0 448.0 261.0 449.0 259.0 450.0 259.0 450.0 257.0 451.0 256.0 451.0 255.0 452.0 253.0 452.0 252.0 453.0 252.0 453.0 251.0 453.0 250.0 453.0 249.0 453.0 248.0 454.0 247.0 454.0 246.0 454.0 245.0 454.0 244.0 454.0 243.0 454.0 242.0 454.0 241.0 454.0 240.0 454.0 239.0 454.0 238.0 454.0 239.0 453.0 239.0 453.0 240.0 453.0 241.0 452.0 241.0 ">
            <path
                d="M 386.0 241.0 L 385.5 245.5 C 385.25 247.75 385.0 252.5 385.0 255.0 C 385.0 257.5 385.0 262.25 385.0 264.5 C 385.0 266.75 385.0 270.25 385.0 271.5 C 385.0 272.75 385.0 275.25 385.0 276.5 C 385.0 277.75 385.0 280.5 385.0 282.0 C 385.0 283.5 385.0 286.25 385.0 287.5 C 385.0 288.75 385.0 291.25 385.0 292.5 C 385.0 293.75 385.25 296.0 385.5 297.0 C 385.75 298.0 386.25 300.0 386.5 301.0 C 386.75 302.0 391.0 302.25 395.0 301.5 C 399.0 300.75 404.5 299.25 406.0 298.5 C 407.5 297.75 410.0 296.5 411.0 296.0 C 412.0 295.5 413.75 294.5 414.5 294.0 C 415.25 293.5 417.5 292.5 419.0 292.0 C 420.5 291.5 423.5 290.25 425.0 289.5 C 426.5 288.75 429.0 287.75 430.0 287.5 C 431.0 287.25 432.75 286.25 433.5 285.5 C 434.25 284.75 436.0 282.75 437.0 281.5 C 438.0 280.25 439.5 278.0 440.0 277.0 C 440.5 276.0 441.75 273.5 442.5 272.0 C 443.25 270.5 444.75 268.0 445.5 267.0 C 446.25 266.0 447.5 263.5 448.0 262.0 C 448.5 260.5 449.75 257.5 450.5 256.0 C 451.25 254.5 452.25 252.0 452.5 251.0 C 452.75 250.0 453.25 247.75 453.5 246.5 C 453.75 245.25 454.0 242.75 454.0 241.5 C 454.0 240.25 453.75 239.5 453.5 240.0 C 453.25 240.5 452.75 241.0 452.0 241.0 "
                stroke-width="2.0" stroke="#ff9900"
                fill="url(#pattern2475)" stroke-dasharray="8.0, 8.0" latexdraw:rotationAngle="0.0"/>
        </g>
        <g latexdraw:type="akinPoints" id="id2476"
            latexdraw:pathType="1" latexdraw:interval="5" latexdraw:points="389.0783573377944 240.10028106104807 388.0783605426708 240.09774931410152 386.0783669524242 240.0926858202069 383.07837656705294 240.08509057936533 381.08091472375327 239.08003029034757 380.08091792862956 239.0774985434008 378.08092433838215 239.0724350495065 377.0809275432588 239.06990330255945 374.080937157888 239.06230806171766 373.0809403627651 239.05977631477066 370.0809499773941 239.05218107392915 368.0809563871469 239.04711758003413 366.0809627969004 239.04205408613973 365.0809660017761 239.03952233919307 363.08097241152893 239.03445884529953 361.08097882128186 239.0293953514054 360.0809820261586 239.0268636044574 359.080985231035 239.02433185751 358.08098843591085 239.02180011056333 357.0809916407874 239.01926836361594 356.08099484566344 239.01673661666956 355.080998050541 239.01420486972188 354.0810012554176 239.0116731227746 353.08100446029334 239.00914137582754 352.08100766517066 239.0066096288802 351.08101087004616 239.00407788193252 350.081014074923 239.00154613498603 349.0810172797994 238.99901438803863 347.08102368955224 238.99395089414458 346.0810268944284 238.99141914719746 345.0810300993055 238.9888874002503 344.08103330418146 238.98635565330335 343.0810365090575 238.983823906356 342.0810397139343 238.98129215940878 341.0810429188108 238.9787604124616 340.0810461236872 238.97622866551484 339.08104932856327 238.97369691856642 338.08105253343956 238.97116517162044 337.0810557383164 238.96863342467333 336.08105894319283 238.96610167772616 335.0810621480696 238.9635699307783 334.0810653529453 238.96103818383108 334.0785336059986 239.96103497895507 333.07853681087533 239.95850323200733 332.0785400157515 239.955971485061 331.0785432206279 239.95343973811384 330.0785464255043 239.95090799116576 329.0785496303806 239.9483762442191 328.0785528352576 239.94584449727205 327.0785560401338 239.94331275032465 327.0760242931867 240.9433095454483 327.06842905234475 243.94329993081902 328.05323536578544 249.94581244850792 329.0481686670156 251.9483377857013 330.03803847434983 255.95085671314337 330.03550672740266 256.95085350826645 331.0279082816845 259.95337564058485 331.0253765347377 260.95337243570833 332.02284158291377 261.9559009777795 332.02030983596705 262.9558977729032 333.0203066310903 262.95842951984963 333.017774884143 263.95842631497305 333.01524313719653 264.95842311009727 333.01271139024914 265.9584199052202 334.01270818537216 265.96095165216775 335.0101732335486 266.9634801942375 335.0076414866013 267.9634769893623 336.0076382817248 267.96600873630905 336.0051065347783 268.96600553143236 336.00257478783135 269.9660023265555 337.0025715829545 269.9685340735028 336.9975080890598 271.9685276637505 336.9949763421132 272.9685244588736 337.9924413902896 273.9710530009445 338.9899064384658 274.9735815430158 338.98737469151854 275.97357833813896 339.9848397396952 276.9761068802097 339.9797762458005 278.9761004704571 339.97724449885357 279.9760972655804 340.97217780008293 281.9786226027748 341.9721745952065 281.98115434972146 341.96964284825935 282.98115114484546 341.9671111013123 283.98114793996865 341.96457935436456 284.9811447350925 342.9645761494886 284.9836764820402 342.96204440254155 285.98367327716323 343.95950945071763 286.9862018192343 343.9569777037709 287.98619861435725 344.95697449889417 287.9887303613044 344.95444275194745 288.98872715642784 345.9544395470708 288.99125890337524 346.95190459524724 289.9937874454465 347.94936964342355 290.9963159875171 349.9468314867231 292.00137627653476 349.94429973977583 293.00137307165835 350.9442965348999 293.00390481860506 351.9442933300227 293.00643656555314 351.9417615830762 294.00643336067577 352.9417583782001 294.0089651076231 353.9392234263762 295.01149364969376 354.9392202214998 295.0140253966415 355.9366852696767 296.01655393871135 356.9366820647996 296.019085685659 357.934147112976 297.02161422773025 359.9316089562758 298.02667451674813 360.9316057513994 298.0292062636941 361.92907079957604 299.0317348057654 362.9290675947 299.034266552712 362.9265358477519 300.03426334783654 363.9265326428756 300.0367950947828 364.92399769105236 301.039323636854 365.9239944861763 301.0418553838013 366.9239912812998 301.04438713074853 367.92145632947654 302.04691567281924 368.92145312459957 302.04944741976686 370.91891496789924 303.0545077087847 370.9163832209525 304.054504503908 372.91637681119937 304.0595679978022 373.91384185937625 305.0620965398724 374.91383865449893 305.0646282868199 376.91130049779963 306.0696885758376 377.91129729292345 306.0722203227847 377.9087655459763 307.0722171179086 378.90876234109953 307.07474886485545 379.9087591362229 307.0772806118032 380.90875593134695 307.0798123587498 381.9087527264694 307.08234410569634 382.90621777464617 308.08487264776846 383.9062145697701 308.0874043947146 384.9062113648931 308.0899361416629 385.9062081600174 308.092467888609 386.9062049551401 308.0949996355574 387.90620175026424 308.09753138250363 388.9061985453877 308.1000631294513 389.90619534051154 308.1025948763975 390.90619213563514 308.10512662334486 391.90618893075816 308.10765837029226 390.90619213563514 308.10512662334486 390.9087238825823 307.1051298282217 389.90872708745906 307.10259808127387 388.90873029233535 307.10006633432755 388.91126203928184 306.10006953920384 ">
            <path
                d="M 389.078369140625 240.10028076171875 L 384.57965087890625 239.58889770507812 C 382.3302917480469 239.33319091796875 377.5809326171875 239.0711669921875 375.0809326171875 239.06484985351562 C 372.5809326171875 239.0585174560547 367.83099365234375 239.04647827148438 365.58099365234375 239.04078674316406 C 363.33099365234375 239.03509521484375 359.83099365234375 239.02622985839844 358.58099365234375 239.0230712890625 C 357.33099365234375 239.0198974609375 354.83099365234375 239.01358032226562 353.58099365234375 239.01040649414062 C 352.33099365234375 239.00723266601562 349.5810241699219 239.00027465820312 348.0810241699219 238.99649047851562 C 346.5810241699219 238.99269104003906 343.8310546875 238.9857177734375 342.5810546875 238.98255920410156 C 341.3310546875 238.97940063476562 338.8310546875 238.9730682373047 337.5810546875 238.96990966796875 C 336.3310546875 238.96673583984375 334.0804443359375 239.21104431152344 333.0798034667969 239.45851135253906 C 332.07916259765625 239.7059783935547 330.0779113769531 240.20091247558594 329.0772705078125 240.44837951660156 C 328.07666015625 240.6958465576172 327.8158874511719 244.9451904296875 328.5557556152344 248.94708251953125 C 329.2956237792969 252.948974609375 330.78167724609375 258.4527587890625 331.52789306640625 259.95465087890625 C 332.27410888671875 261.45654296875 333.51776123046875 263.9596862792969 334.0152282714844 264.9609375 C 334.5126953125 265.96221923828125 335.50823974609375 267.7147216796875 336.00634765625 268.46600341796875 C 336.50445556640625 269.21728515625 337.498779296875 271.46978759765625 337.9949645996094 272.9710693359375 C 338.49114990234375 274.4723205566406 339.73358154296875 277.4754638671875 340.4797668457031 278.97735595703125 C 341.2259521484375 280.479248046875 342.2196350097656 282.9817810058594 342.46710205078125 283.982421875 C 342.7145690917969 284.9830322265625 343.71014404296875 286.735595703125 344.458251953125 287.48748779296875 C 345.20635986328125 288.2393798828125 347.201904296875 289.99444580078125 348.4493713378906 290.9975891113281 C 349.69683837890625 292.000732421875 351.94305419921875 293.5064392089844 352.9417724609375 294.00897216796875 C 353.94049072265625 294.5115051269531 356.43731689453125 295.767822265625 357.9354248046875 296.5216064453125 C 359.43353271484375 297.275390625 361.9296875 298.78173828125 362.92779541015625 299.5342712402344 C 363.9259033203125 300.28680419921875 366.4227294921875 301.54315185546875 367.92144775390625 302.04693603515625 C 369.420166015625 302.55072021484375 372.4169921875 303.80828857421875 373.91510009765625 304.5621032714844 C 375.4132080078125 305.31591796875 377.91064453125 306.3222351074219 378.9100341796875 306.57476806640625 C 379.9093933105469 306.8272705078125 382.1581115722656 307.33294677734375 383.407470703125 307.58612060546875 C 384.6568603515625 307.83929443359375 387.15618896484375 308.09564208984375 388.40618896484375 308.09881591796875 C 389.65618896484375 308.10198974609375 390.4068298339844 307.8538818359375 389.907470703125 307.60260009765625 C 389.4080810546875 307.351318359375 388.90936279296875 306.8500671386719 388.91126203928184 306.10006953920384 "
                stroke-width="2.0" stroke="#ff9900"
                fill="url(#pattern2476)" stroke-dasharray="8.0, 8.0" latexdraw:rotationAngle="1.5733280764467201"/>
        </g>
        <g latexdraw:type="rectangle" id="id2477">
            <rect x="614.0" y="195.0" width="32.0" height="118.0"
                latexdraw:borderPos="outer" stroke-width="2.0"
                stroke="black" fill="none"/>
        </g>
        <g latexdraw:type="rectangle" id="id2478" transform="rotate(-42.373594361709245) translate(-310.515172581722 313.9796801573117)">
            <rect x="502.95925946038835" y="233.06185442416756"
                width="114.63818484162596" height="21.0"
                latexdraw:borderPos="outer" stroke-width="2.0"
                stroke="#00cccc" fill="none"/>
        </g>
        <g latexdraw:type="rectangle" id="id2479">
            <rect x="508.0" y="292.0" width="32.0" height="20.0"
                latexdraw:borderPos="outer" stroke-width="2.0"
                stroke="black" fill="none"/>
        </g>
        <g latexdraw:type="dot" id="id2480" latexdraw:size="6.0"
            latexdraw:dotShape="dot" latexdraw:position="560.0 244.0">
            <circle r="3.0" fill="black" cx="560.0" cy="244.0"/>
        </g>
        <g latexdraw:type="circle" id="id2481">
            <circle cx="559.5" cy="242.5" r="61.5"
                latexdraw:borderPos="outer" stroke-width="2.0"
                stroke="#ff3333" fill="none" stroke-dasharray="8.0, 8.0"/>
        </g>
        <g latexdraw:type="line" id="id2483">
            <line x1="503.0" x2="627.0" y1="243.0" y2="242.0"
                stroke-width="2.0" stroke="#ff0033"
                stroke-dasharray="8.0, 8.0" latexdraw:rotationAngle="0.0"/>
        </g>
        <g latexdraw:type="line" id="id2484">
            <line x1="561.0" x2="560.0" y1="184.0" y2="301.0"
                stroke-width="2.0" stroke="#ff0033"
                stroke-dasharray="8.0, 8.0" latexdraw:rotationAngle="0.0"/>
        </g>
        <g latexdraw:type="text" id="id2485"
            font-family="Times New Roman" fill="black" font-size="18" latexdraw:x="248.0">
            <text x="248.0" y="226.0"><![CDATA[O1]]></text>
        </g>
        <g latexdraw:type="text" id="id2488"
            font-family="Times New Roman" fill="black" font-size="18" latexdraw:x="399.0">
            <text x="399.0" y="231.0"><![CDATA[O1]]></text>
        </g>
        <g latexdraw:type="text" id="id2491"
            font-family="Times New Roman" fill="black" font-size="18" latexdraw:x="568.0">
            <text x="568.0" y="234.0"><![CDATA[O1]]></text>
        </g>
        <g latexdraw:type="text" id="id2494"
            font-family="Times New Roman" fill="black" font-size="18" latexdraw:x="187.0">
            <text x="187.0" y="309.0"><![CDATA[O2]]></text>
        </g>
        <g latexdraw:type="text" id="id2497"
            font-family="Times New Roman" fill="black" font-size="18" latexdraw:x="205.0">
            <text x="205.0" y="204.0"><![CDATA[O3]]></text>
        </g>
        <g latexdraw:type="text" id="id2500"
            font-family="Times New Roman" fill="black" font-size="18" latexdraw:x="432.0">
            <text x="432.0" y="298.0"><![CDATA[O2]]></text>
        </g>
        <g latexdraw:type="text" id="id2503"
            font-family="Times New Roman" fill="black" font-size="18" latexdraw:x="512.0">
            <text x="512.0" y="309.0"><![CDATA[O2]]></text>
        </g>
        <g latexdraw:type="text" id="id2506"
            font-family="Times New Roman" fill="black" font-size="18" latexdraw:x="624.0">
            <text x="624.0" y="260.0"><![CDATA[O3]]></text>
        </g>
    </g>
    <metadata>
        <latexdraw:metadata>
            <latexdraw:displayBorders>false</latexdraw:displayBorders>
            <latexdraw:autoAdjust>true</latexdraw:autoAdjust>
            <latexdraw:ppc>50</latexdraw:ppc>
            <latexdraw:zoom>1.0</latexdraw:zoom>
            <latexdraw:unit>cm</latexdraw:unit>
            <latexdraw:classicGrid>false</latexdraw:classicGrid>
            <latexdraw:gridGap>10</latexdraw:gridGap>
            <latexdraw:code>0</latexdraw:code>
            <latexdraw:displayGrid>true</latexdraw:displayGrid>
            <latexdraw:magneticGrid>false</latexdraw:magneticGrid>
            <latexdraw:autoUpdate>true</latexdraw:autoUpdate>
            <latexdraw:version>2.0.8</latexdraw:version>
            <latexdraw:size>
                <latexdraw:width>1932</latexdraw:width>
                <latexdraw:height>1056</latexdraw:height>
            </latexdraw:size>
            <latexdraw:position>
                <latexdraw:x>0</latexdraw:x>
                <latexdraw:y>0</latexdraw:y>
            </latexdraw:position>
            <latexdraw:dividerPosition>0.7665631469979296</latexdraw:dividerPosition>
            <latexdraw:displayCodePanel>true</latexdraw:displayCodePanel>
            <latexdraw:displayXScale>true</latexdraw:displayXScale>
            <latexdraw:displayYScale>true</latexdraw:displayYScale>
            <latexdraw:delimitorOpacity>130</latexdraw:delimitorOpacity>
        </latexdraw:metadata>
    </metadata>
</svg>
